<svg width="84" height="84" viewBox="0 0 84 84" fill="none" xmlns="http://www.w3.org/2000/svg">
<path fill-rule="evenodd" clip-rule="evenodd" d="M0 42.0386C0 62.8245 15.0963 80.1071 34.8376 83.6103V53.4176H24.3863V41.8052H34.8376V32.5151C34.8376 22.0638 41.5728 16.2575 51.0953 16.2575C54.1144 16.2575 57.3661 16.722 60.3851 17.1865V27.8701H55.0435C49.9338 27.8701 48.7727 30.4248 48.7727 33.6764V41.8052H59.9207L58.0629 53.4176H48.7727V83.6103C68.5141 80.1071 83.6103 62.8245 83.6103 42.0386C83.6103 18.9174 64.798 0 41.8052 0C18.8123 0 0 18.9174 0 42.0386H0Z" fill="white"/>
</svg>
