<svg width="84" height="84" viewBox="0 0 84 84" fill="none" xmlns="http://www.w3.org/2000/svg">
<path fill-rule="evenodd" clip-rule="evenodd" d="M24.5698 0.250831C29.0291 0.0464417 30.4504 0 41.8052 0C53.1621 0 54.5812 0.04876 59.038 0.250831C63.4903 0.452902 66.5306 1.16127 69.1898 2.19477C71.979 3.24488 74.5055 4.89022 76.5939 7.01631C78.7203 9.10441 80.3659 11.6312 81.4156 14.4205C82.4489 17.0797 83.155 20.1199 83.3595 24.5698C83.564 29.0291 83.6103 30.4504 83.6103 41.8052C83.6103 53.1598 83.5617 54.5812 83.3595 59.0407C83.1573 63.4903 82.4489 66.5306 81.4156 69.1898C80.3473 71.9376 78.9164 74.2714 76.5939 76.5939C74.5059 78.7203 71.979 80.3659 69.1898 81.4156C66.5306 82.4489 63.4903 83.155 59.0407 83.3595C54.5812 83.564 53.1598 83.6103 41.8052 83.6103C30.4504 83.6103 29.0291 83.5617 24.5698 83.3595C20.1199 83.1573 17.0797 82.4489 14.4205 81.4156C11.6729 80.3473 9.33882 78.9164 7.01631 76.5939C4.88984 74.5059 3.24439 71.979 2.19477 69.1898C1.16127 66.5306 0.45522 63.4903 0.250831 59.0407C0.0464417 54.5812 0 53.1621 0 41.8052C0 30.4481 0.04876 29.0291 0.250831 24.5722C0.452902 20.1199 1.16127 17.0797 2.19477 14.4205C3.24488 11.6314 4.89022 9.10471 7.01631 7.01631C9.10437 4.88984 11.6311 3.24439 14.4205 2.19477C17.0797 1.16127 20.1199 0.45522 24.5698 0.250831ZM58.699 7.77576C54.2909 7.57601 52.9671 7.53188 41.8052 7.53188C30.6432 7.53188 29.3194 7.57601 24.9112 7.77576C20.8352 7.96157 18.6219 8.64204 17.1494 9.21572C15.1985 9.97285 13.805 10.8786 12.3418 12.3418C10.881 13.805 9.97285 15.1985 9.21572 17.1494C8.64204 18.6219 7.96157 20.8352 7.77576 24.9112C7.57601 29.3194 7.53188 30.6432 7.53188 41.8052C7.53188 52.9671 7.57601 54.2909 7.77576 58.699C7.96157 62.775 8.64204 64.9884 9.21572 66.4611C9.88544 68.277 10.9537 69.9195 12.3418 71.2687C13.6906 72.6566 15.3334 73.7249 17.1494 74.3946C18.6219 74.9684 20.8352 75.6487 24.9112 75.8346C29.3194 76.0345 30.6409 76.0786 41.8052 76.0786C52.9694 76.0786 54.2909 76.0345 58.699 75.8346C62.775 75.6487 64.9884 74.9684 66.4611 74.3946C68.4119 73.6375 69.8055 72.7319 71.2687 71.2687C72.6566 69.9199 73.7249 68.277 74.3946 66.4611C74.9684 64.9884 75.6487 62.775 75.8346 58.699C76.0345 54.2909 76.0786 52.9671 76.0786 41.8052C76.0786 30.6432 76.0345 29.3194 75.8346 24.9112C75.6487 20.8352 74.9684 18.6219 74.3946 17.1494C73.6375 15.1985 72.7319 13.805 71.2687 12.3418C69.8055 10.881 68.4119 9.97285 66.4611 9.21572C64.9884 8.64204 62.775 7.96157 58.699 7.77576ZM36.4674 54.6922C38.1598 55.3934 39.9733 55.754 41.8052 55.754C45.5049 55.754 49.0527 54.2844 51.6685 51.6685C54.2848 49.0527 55.7544 45.5045 55.7544 41.8052C55.7544 38.1058 54.2848 34.5577 51.6685 31.9417C49.0527 29.3258 45.5049 27.8562 41.8052 27.8562C39.9733 27.8562 38.1598 28.217 36.4674 28.918C34.7747 29.619 33.2371 30.6464 31.9418 31.9417C30.6466 33.237 29.6191 34.7747 28.9181 36.467C28.2171 38.1594 27.8563 39.9733 27.8563 41.8052C27.8563 43.637 28.2171 45.451 28.9181 47.1433C29.6191 48.8357 30.6466 50.3733 31.9418 51.6685C33.2371 52.9637 34.7747 53.9914 36.4674 54.6922ZM26.6111 26.6109C30.6408 22.5812 36.1064 20.3173 41.8052 20.3173C47.5044 20.3173 52.9698 22.5812 56.9994 26.6109C61.0291 30.6407 63.293 36.1064 63.293 41.8052C63.293 47.504 61.0291 52.9694 56.9994 56.9994C52.9698 61.0291 47.5044 63.293 41.8052 63.293C36.1064 63.293 30.6408 61.0291 26.6111 56.9994C22.5813 52.9694 20.3174 47.504 20.3174 41.8052C20.3174 36.1064 22.5813 30.6407 26.6111 26.6109ZM68.0577 23.5188C69.0101 22.5662 69.5452 21.2742 69.5452 19.9271C69.5452 18.58 69.0101 17.288 68.0577 16.3355C67.1049 15.3829 65.8131 14.8478 64.4659 14.8478C63.119 14.8478 61.8268 15.3829 60.8744 16.3355C59.9216 17.288 59.3865 18.58 59.3865 19.9271C59.3865 21.2742 59.9216 22.5662 60.8744 23.5188C61.8268 24.4713 63.119 25.0064 64.4659 25.0064C65.8131 25.0064 67.1049 24.4713 68.0577 23.5188Z" fill="white"/>
</svg>
