<svg width="84" height="84" viewBox="0 0 84 84" fill="none" xmlns="http://www.w3.org/2000/svg">
<path fill-rule="evenodd" clip-rule="evenodd" d="M0 7.37458C0 5.52207 0.735918 3.74543 2.04585 2.4355C3.35578 1.12557 5.13243 0.389648 6.98493 0.389648H76.6251C77.5426 0.389648 78.451 0.570331 79.2981 0.921358C80.1457 1.27239 80.9157 1.78688 81.5644 2.4355C82.2128 3.08411 82.7274 3.85412 83.0786 4.70155C83.4294 5.54902 83.6103 6.4573 83.6103 7.37458V77.0148C83.6103 77.9323 83.4294 78.8406 83.0786 79.6878C82.7274 80.5353 82.2128 81.3053 81.5644 81.9541C80.9157 82.6025 80.1457 83.1171 79.2981 83.4683C78.451 83.8191 77.5426 84 76.6251 84H6.98493C5.13243 84 3.35578 83.2638 2.04585 81.9541C0.735918 80.644 0 78.8676 0 77.0148V7.37458ZM33.0957 32.2661H44.4181V37.9552C46.0501 34.6836 50.2323 31.7435 56.5152 31.7435C68.5586 31.7435 71.4171 38.2547 71.4171 50.202V72.3294H59.2239V52.9229C59.2239 46.1194 57.5919 42.2818 53.4408 42.2818C47.684 42.2818 45.2888 46.4188 45.2888 52.9229V72.3294H33.0957V32.2661ZM12.1931 71.8068H24.3863V31.7435H12.1931V71.8068ZM26.1282 18.6794C26.1282 19.7087 25.9254 20.728 25.5315 21.679C25.1376 22.63 24.5602 23.4941 23.8323 24.222C23.1045 24.9499 22.2404 25.5273 21.2894 25.9212C20.3384 26.3151 19.3191 26.5178 18.2897 26.5178C17.2604 26.5178 16.2411 26.3151 15.2901 25.9212C14.3391 25.5273 13.475 24.9499 12.7471 24.222C12.0192 23.4941 11.4419 22.63 11.0479 21.679C10.654 20.728 10.4513 19.7087 10.4513 18.6794C10.4513 16.6005 11.2771 14.6067 12.7471 13.1367C14.2171 11.6668 16.2108 10.8409 18.2897 10.8409C20.3686 10.8409 22.3624 11.6668 23.8323 13.1367C25.3024 14.6067 26.1282 16.6005 26.1282 18.6794Z" fill="white"/>
</svg>
