<svg width="84" height="84" viewBox="0 0 84 84" fill="none" xmlns="http://www.w3.org/2000/svg">
<path d="M83.6103 15.6044C80.5356 16.9669 77.2326 17.8875 73.7602 18.3036C77.3026 16.1825 80.0201 12.8169 81.3015 8.81058C77.9875 10.7769 74.3162 12.2057 70.4093 12.9716C67.2793 9.64278 62.8237 7.55859 57.8895 7.55859C48.4186 7.55859 40.7373 15.2399 40.7373 24.7181C40.7373 26.0585 40.8919 27.362 41.1792 28.6214C26.9176 27.9033 14.2836 21.0726 5.82171 10.6959C4.34879 13.2367 3.50186 16.1825 3.50186 19.3199C3.50186 25.2705 6.5324 30.5251 11.1316 33.5998C8.31832 33.5078 5.67442 32.7382 3.36194 31.4531V31.674C3.36194 39.9849 9.27203 46.9187 17.1227 48.4947C15.6792 48.885 14.1658 49.0913 12.6045 49.0913C11.4998 49.0913 10.4209 48.9882 9.37514 48.7893C11.5587 55.6016 17.8923 60.5653 25.4005 60.6979C19.5272 65.3008 12.1295 68.0441 4.09471 68.0441C2.71017 68.0441 1.34403 67.9631 0 67.8047C7.5929 72.6764 16.6072 75.5118 26.2916 75.5118C57.8489 75.5118 75.1005 49.3748 75.1005 26.7066C75.1005 25.9701 75.0821 25.2263 75.049 24.4898C78.3999 22.0669 81.3089 19.0511 83.603 15.6155L83.6103 15.6044Z" fill="white"/>
</svg>
