<svg width="84" height="84" viewBox="0 0 84 84" fill="none" xmlns="http://www.w3.org/2000/svg">
<path d="M81.8569 22.525C81.3964 20.856 80.4771 19.33 79.1914 18.1001C77.9054 16.8702 76.2982 15.9796 74.5305 15.5175C67.9892 13.7963 41.7799 13.7963 41.7799 13.7963C30.8513 13.6729 19.9258 14.2205 9.07305 15.4355C7.30476 15.9314 5.70011 16.8425 4.4106 18.083C3.12111 19.3234 2.18928 20.8522 1.7031 22.525C0.530607 28.8439 -0.0385761 35.2487 0.00233935 41.6625C-0.0413819 48.0766 0.527823 54.4817 1.7031 60.8004C2.17927 62.4685 3.10909 63.9917 4.40123 65.2207C5.69336 66.4492 7.30333 67.3406 9.07305 67.8077C15.7017 69.5288 41.7799 69.5288 41.7799 69.5288C52.723 69.6524 63.6633 69.1049 74.5305 67.8895C76.2982 67.4277 77.9054 66.537 79.1914 65.307C80.4771 64.0771 81.3964 62.5511 81.8569 60.8822C83.0593 54.5663 83.6431 48.1606 83.6013 41.7447C83.6915 35.2999 83.107 28.8623 81.8569 22.525ZM33.4506 53.5879V29.7375L55.2553 41.6625L33.4506 53.5879Z" fill="white"/>
</svg>
